<svg width="31" height="31" viewBox="0 0 31 31" fill="none" xmlns="http://www.w3.org/2000/svg">
<path id="Bell Stroke Icon" fill-rule="evenodd" clip-rule="evenodd" d="M26.8429 13.4382C26.8429 16.147 27.586 18.8067 28.9953 21.1414L30.515 23.6591C30.8206 24.1654 30.4461 24.8038 29.8435 24.8038H22.5377C22.4501 25.3092 22.3042 25.8046 22.102 26.2804C21.7497 27.1097 21.2332 27.8632 20.582 28.4979C19.9309 29.1327 19.1579 29.6362 18.3072 29.9797C17.4565 30.3232 16.5447 30.5 15.6238 30.5C14.703 30.5 13.7912 30.3232 12.9405 29.9797C12.0898 29.6362 11.3168 29.1327 10.6656 28.4979C10.0145 27.8632 9.49803 27.1097 9.14565 26.2804C8.94348 25.8046 8.7976 25.3092 8.70997 24.8038H1.40407C0.801452 24.8038 0.426975 24.1654 0.73258 23.6591L2.2523 21.1414C3.66154 18.8067 4.40466 16.147 4.40466 13.4382V10.5567C4.40466 5.00256 9.42763 0.5 15.6238 0.5C21.8199 0.5 26.8429 5.00256 26.8429 10.5567V13.4382ZM6.74198 10.5567C6.74198 6.43709 10.5301 2.77848 15.6238 2.77848C20.7175 2.77848 24.5056 6.43709 24.5056 10.5567V13.4382C24.5056 16.5534 25.3602 19.6119 26.9808 22.2969L27.1187 22.5253H4.12887L4.26676 22.2969C5.88739 19.6119 6.74198 16.5534 6.74198 13.4382V10.5567ZM11.0977 24.8038C11.1521 25.0094 11.2213 25.2114 11.305 25.4084C11.54 25.9613 11.8843 26.4637 12.3184 26.8868C12.7525 27.31 13.2678 27.6456 13.8349 27.8746C14.4021 28.1036 15.01 28.2215 15.6238 28.2215C16.2377 28.2215 16.8456 28.1036 17.4128 27.8746C17.9799 27.6456 18.4952 27.31 18.9293 26.8868C19.3634 26.4637 19.7077 25.9613 19.9426 25.4084C20.0264 25.2114 20.0956 25.0094 20.15 24.8038H11.0977Z" fill="#687684"/>
</svg>
