<svg width="27" height="27" viewBox="0 0 27 27" fill="none" xmlns="http://www.w3.org/2000/svg">
<g id="Vector">
<path d="M14.4615 7.25V19.75V7.25ZM22.1538 7.25H18.3077V13.5M18.3077 13.5V19.75V13.5ZM18.3077 13.5H21.1923H18.3077ZM10.6154 9.08C9.29487 6.64 7.15641 6.64 5.8359 9.08C4.51538 11.5217 4.51538 15.48 5.8359 17.92C7.15641 20.36 9.29615 20.36 10.6154 17.92V13.5H8.69231M3.88462 26H23.1154C23.8804 26 24.6141 25.6049 25.1551 24.9016C25.6961 24.1984 26 23.2446 26 22.25V4.75C26 3.75544 25.6961 2.80161 25.1551 2.09835C24.6141 1.39509 23.8804 1 23.1154 1H3.88462C3.11957 1 2.38585 1.39509 1.84488 2.09835C1.30391 2.80161 1 3.75544 1 4.75V22.25C1 23.2446 1.30391 24.1984 1.84488 24.9016C2.38585 25.6049 3.11957 26 3.88462 26Z" fill="#F04B4B"/>
<path d="M14.4615 7.25V19.75M22.1538 7.25H18.3077V13.5M18.3077 13.5V19.75M18.3077 13.5H21.1923M10.6154 9.08C9.29487 6.64 7.15641 6.64 5.8359 9.08C4.51538 11.5217 4.51538 15.48 5.8359 17.92C7.15641 20.36 9.29615 20.36 10.6154 17.92V13.5H8.69231M3.88462 26H23.1154C23.8804 26 24.6141 25.6049 25.1551 24.9016C25.6961 24.1984 26 23.2446 26 22.25V4.75C26 3.75544 25.6961 2.80161 25.1551 2.09835C24.6141 1.39509 23.8804 1 23.1154 1H3.88462C3.11957 1 2.38585 1.39509 1.84488 2.09835C1.30391 2.80161 1 3.75544 1 4.75V22.25C1 23.2446 1.30391 24.1984 1.84488 24.9016C2.38585 25.6049 3.11957 26 3.88462 26Z" stroke="black" stroke-width="1.5" stroke-linecap="round" stroke-linejoin="round"/>
</g>
</svg>
