<svg width="30" height="31" viewBox="0 0 30 31" fill="none" xmlns="http://www.w3.org/2000/svg">
<path id="Home Solid Icon" fill-rule="evenodd" clip-rule="evenodd" d="M2.93923 9.67782L1.49629 10.5964C1.01678 10.9017 0.405933 10.7161 0.131926 10.1819C-0.14208 9.64765 0.0245145 8.96712 0.504026 8.66186L13.1808 0.591676C14.3081 -0.125936 15.6919 -0.125936 16.8192 0.591676L29.496 8.66186C29.9755 8.96712 30.1421 9.64765 29.8681 10.1819C29.5941 10.7161 28.9832 10.9017 28.5037 10.5964L27.0608 9.67782L25.1335 25.2443C24.7923 28.0005 22.6779 30.0535 20.1805 30.0535H9.81954C7.32214 30.0535 5.20773 28.0005 4.86649 25.2443L2.93923 9.67782ZM15.0002 20.0269C17.3934 20.0269 19.3334 17.8656 19.3334 15.1994C19.3334 12.5332 17.3934 10.3718 15.0002 10.3718C12.6069 10.3718 10.6669 12.5332 10.6669 15.1994C10.6669 17.8656 12.6069 20.0269 15.0002 20.0269Z" fill="#4C9EEB"/>
</svg>
