<svg width="27" height="27" viewBox="0 0 27 27" fill="none" xmlns="http://www.w3.org/2000/svg">
<g id="Vector">
<path d="M1 19.75L7.6141 11.1517C7.88196 10.8034 8.19996 10.5272 8.54994 10.3388C8.89992 10.1503 9.27503 10.0533 9.65385 10.0533C10.0327 10.0533 10.4078 10.1503 10.7577 10.3388C11.1077 10.5272 11.4257 10.8034 11.6936 11.1517L18.3077 19.75M16.3846 17.25L18.191 14.9017C18.4589 14.5534 18.7769 14.2772 19.1269 14.0888C19.4768 13.9003 19.852 13.8033 20.2308 13.8033C20.6096 13.8033 20.9847 13.9003 21.3347 14.0888C21.6847 14.2772 22.0027 14.5534 22.2705 14.9017L26 19.75M2.92308 26H24.0769C24.587 26 25.0761 25.7366 25.4367 25.2678C25.7974 24.7989 26 24.163 26 23.5V3.5C26 2.83696 25.7974 2.20107 25.4367 1.73223C25.0761 1.26339 24.587 1 24.0769 1H2.92308C2.41305 1 1.9239 1.26339 1.56326 1.73223C1.20261 2.20107 1 2.83696 1 3.5V23.5C1 24.163 1.20261 24.7989 1.56326 25.2678C1.9239 25.7366 2.41305 26 2.92308 26ZM16.3846 7.25H16.3949V7.26333H16.3846V7.25ZM16.8654 7.25C16.8654 7.41576 16.8147 7.57473 16.7246 7.69194C16.6344 7.80915 16.5121 7.875 16.3846 7.875C16.2571 7.875 16.1348 7.80915 16.0447 7.69194C15.9545 7.57473 15.9038 7.41576 15.9038 7.25C15.9038 7.08424 15.9545 6.92527 16.0447 6.80806C16.1348 6.69085 16.2571 6.625 16.3846 6.625C16.5121 6.625 16.6344 6.69085 16.7246 6.80806C16.8147 6.92527 16.8654 7.08424 16.8654 7.25Z" fill="#2793F7"/>
<path d="M1 19.75L7.6141 11.1517C7.88196 10.8034 8.19996 10.5272 8.54994 10.3388C8.89992 10.1503 9.27503 10.0533 9.65385 10.0533C10.0327 10.0533 10.4078 10.1503 10.7577 10.3388C11.1077 10.5272 11.4257 10.8034 11.6936 11.1517L18.3077 19.75M16.3846 17.25L18.191 14.9017C18.4589 14.5534 18.7769 14.2772 19.1269 14.0888C19.4768 13.9003 19.852 13.8033 20.2308 13.8033C20.6096 13.8033 20.9847 13.9003 21.3347 14.0888C21.6847 14.2772 22.0027 14.5534 22.2705 14.9017L26 19.75M2.92308 26H24.0769C24.587 26 25.0761 25.7366 25.4367 25.2678C25.7974 24.7989 26 24.163 26 23.5V3.5C26 2.83696 25.7974 2.20107 25.4367 1.73223C25.0761 1.26339 24.587 1 24.0769 1H2.92308C2.41305 1 1.9239 1.26339 1.56326 1.73223C1.20261 2.20107 1 2.83696 1 3.5V23.5C1 24.163 1.20261 24.7989 1.56326 25.2678C1.9239 25.7366 2.41305 26 2.92308 26ZM16.3846 7.25H16.3949V7.26333H16.3846V7.25ZM16.8654 7.25C16.8654 7.41576 16.8147 7.57473 16.7246 7.69194C16.6344 7.80915 16.5121 7.875 16.3846 7.875C16.2571 7.875 16.1348 7.80915 16.0447 7.69194C15.9545 7.57473 15.9038 7.41576 15.9038 7.25C15.9038 7.08424 15.9545 6.92527 16.0447 6.80806C16.1348 6.69085 16.2571 6.625 16.3846 6.625C16.5121 6.625 16.6344 6.69085 16.7246 6.80806C16.8147 6.92527 16.8654 7.08424 16.8654 7.25Z" stroke="#0E3785" stroke-width="1.5" stroke-linecap="round" stroke-linejoin="round"/>
</g>
</svg>
