<svg width="31" height="31" viewBox="0 0 31 31" fill="none" xmlns="http://www.w3.org/2000/svg">
<path id="Mail Stroke Icon" fill-rule="evenodd" clip-rule="evenodd" d="M0.250244 3.83333C0.250244 1.99238 1.59339 0.5 3.25024 0.5H27.2502C28.9071 0.5 30.2502 1.99238 30.2502 3.83333V27.1667C30.2502 29.0076 28.9071 30.5 27.2502 30.5H3.25024C1.59339 30.5 0.250244 29.0076 0.250244 27.1667V3.83333ZM3.25024 3H27.2502C27.6645 3 28.0002 3.3731 28.0002 3.83333V5.38658L15.4583 14.6769C15.3323 14.7702 15.1682 14.7702 15.0422 14.6769L2.50024 5.38658V3.83333C2.50024 3.3731 2.83603 3 3.25024 3ZM2.50024 8.3912V27.1667C2.50024 27.6269 2.83603 28 3.25024 28H27.2502C27.6645 28 28.0002 27.6269 28.0002 27.1667V8.3912L16.7063 16.7571C15.8246 17.4102 14.6759 17.4102 13.7942 16.7571L2.50024 8.3912Z" fill="#687684"/>
</svg>
