<svg width="30" height="30" viewBox="0 0 30 30" fill="none" xmlns="http://www.w3.org/2000/svg">
<g id="Mail">
<path id="Path 39743" d="M4.50016 5.00008H25.5002C25.8023 4.99292 26.0949 5.10599 26.3136 5.31444C26.5324 5.52289 26.6594 5.80966 26.6669 6.11174V23.8884C26.6594 24.1905 26.5324 24.4773 26.3136 24.6857C26.0949 24.8942 25.8023 25.0072 25.5002 25.0001H4.50016C4.19808 25.0072 3.9055 24.8942 3.68674 24.6857C3.46798 24.4773 3.34092 24.1905 3.3335 23.8884V6.11174C3.34092 5.80966 3.46798 5.52289 3.68674 5.31444C3.9055 5.10599 4.19808 4.99292 4.50016 5.00008ZM24.3335 9.70841L15.0835 17.5984L5.66683 9.68508V22.7784H24.3335V9.70841ZM6.2635 7.22174L15.0718 14.6251L23.7535 7.22341L6.2635 7.22174Z" fill="#FFFEFD"/>
</g>
</svg>
