<svg width="27" height="27" viewBox="0 0 27 27" fill="none" xmlns="http://www.w3.org/2000/svg">
<g id="Vector">
<path d="M9.30521 9.58563L26 5.7698L9.30521 9.58563ZM26 14.1049V18.8747C25.9998 19.4965 25.7465 20.1014 25.2783 20.5978C24.8101 21.0942 24.1526 21.4551 23.4052 21.6259L21.3064 22.1054C20.9425 22.1934 20.5603 22.2226 20.1822 22.1913C19.804 22.16 19.4375 22.0688 19.1038 21.9231C18.7701 21.7774 18.4759 21.5801 18.2385 21.3426C18.001 21.1051 17.825 20.8322 17.7206 20.5398C17.6162 20.2474 17.5856 19.9413 17.6305 19.6393C17.6754 19.3373 17.7949 19.0455 17.9821 18.7808C18.1693 18.5161 18.4205 18.2838 18.7209 18.0975C19.0214 17.9112 19.3652 17.7746 19.7323 17.6956L23.4052 16.8561C24.1526 16.6853 24.8101 16.3244 25.2783 15.828C25.7465 15.3316 25.9998 14.7267 26 14.1049ZM26 14.1049V1L9.30521 4.81584V17.9207M9.30521 17.9207V22.6905C9.30505 23.3123 9.05171 23.9172 8.58352 24.4136C8.11534 24.91 7.45779 25.2709 6.71036 25.4417L4.61158 25.9212C3.88473 26.0777 3.11012 25.9992 2.45501 25.7026C1.7999 25.4061 1.31686 24.9154 1.11019 24.3364C0.903512 23.7574 0.98979 23.1366 1.35039 22.608C1.71099 22.0795 2.31698 21.6856 3.0375 21.5114L6.71036 20.6719C7.45779 20.5011 8.11534 20.1402 8.58352 19.6438C9.05171 19.1474 9.30505 18.5425 9.30521 17.9207Z" fill="#ED37C5" fill-opacity="0.59"/>
<path d="M9.30521 9.58563L26 5.7698M26 14.1049V18.8747C25.9998 19.4965 25.7465 20.1014 25.2783 20.5978C24.8101 21.0942 24.1526 21.4551 23.4052 21.6259L21.3064 22.1054C20.9425 22.1934 20.5603 22.2226 20.1822 22.1913C19.804 22.16 19.4375 22.0688 19.1038 21.9231C18.7701 21.7774 18.4759 21.5801 18.2385 21.3426C18.001 21.1051 17.825 20.8322 17.7206 20.5398C17.6162 20.2474 17.5856 19.9413 17.6305 19.6393C17.6754 19.3373 17.7949 19.0455 17.9821 18.7808C18.1693 18.5161 18.4205 18.2838 18.7209 18.0975C19.0214 17.9112 19.3652 17.7746 19.7323 17.6956L23.4052 16.8561C24.1526 16.6853 24.8101 16.3244 25.2783 15.828C25.7465 15.3316 25.9998 14.7267 26 14.1049ZM26 14.1049V1L9.30521 4.81584V17.9207M9.30521 17.9207V22.6905C9.30505 23.3123 9.05171 23.9172 8.58352 24.4136C8.11534 24.91 7.45779 25.2709 6.71036 25.4417L4.61158 25.9212C3.88473 26.0777 3.11012 25.9992 2.45501 25.7026C1.7999 25.4061 1.31686 24.9154 1.11019 24.3364C0.903512 23.7574 0.98979 23.1366 1.35039 22.608C1.71099 22.0795 2.31698 21.6856 3.0375 21.5114L6.71036 20.6719C7.45779 20.5011 8.11534 20.1402 8.58352 19.6438C9.05171 19.1474 9.30505 18.5425 9.30521 17.9207Z" stroke="black" stroke-width="1.5" stroke-linecap="round" stroke-linejoin="round"/>
</g>
</svg>
