<svg width="30" height="30" viewBox="0 0 30 30" fill="none" xmlns="http://www.w3.org/2000/svg">
<g id="Password">
<path id="Path 39745" d="M22.7786 12.6667H23.8903C24.1921 12.6746 24.4784 12.8018 24.6865 13.0205C24.8946 13.2393 25.0075 13.5316 25.0003 13.8334V25.5001C25.0075 25.8022 24.8944 26.0948 24.6859 26.3135C24.4775 26.5323 24.1907 26.6593 23.8886 26.6668H6.11176C5.80967 26.6593 5.52289 26.5323 5.31444 26.3135C5.10599 26.0948 4.99292 25.8022 5.00008 25.5001V13.8334C4.99292 13.5313 5.10599 13.2387 5.31444 13.02C5.52289 12.8012 5.80967 12.6742 6.11176 12.6667H7.22344V11.5001C7.1733 9.38628 7.96411 7.33901 9.4222 5.80781C10.8803 4.27661 12.8865 3.38665 15.0002 3.33337C17.1142 3.38622 19.1208 4.27598 20.5793 5.80723C22.0377 7.33848 22.8287 9.386 22.7786 11.5001V12.6667ZM7.22177 15.0001V24.3334H22.7769V15.0001H7.22177ZM13.8885 17.3334H16.1119V22.0001H13.8885V17.3334ZM20.5553 12.6667V11.5001C20.5911 9.99018 20.0262 8.52781 18.9846 7.43408C17.9431 6.34036 16.51 5.70471 15.0002 5.66671C13.4903 5.70471 12.0573 6.34036 11.0158 7.43408C9.97422 8.52781 9.40932 9.99018 9.44513 11.5001V12.6667H20.5553Z" fill="white"/>
</g>
</svg>
