<svg width="31" height="30" viewBox="0 0 31 30" fill="none" xmlns="http://www.w3.org/2000/svg">
<path id="Search Stroke Icon" fill-rule="evenodd" clip-rule="evenodd" d="M22.7489 24.1098C20.3671 26.126 17.2861 27.3418 13.9211 27.3418C6.37091 27.3418 0.250244 21.2211 0.250244 13.6709C0.250244 6.12066 6.37091 0 13.9211 0C21.4714 0 27.592 6.12066 27.592 13.6709C27.592 17.0359 26.3763 20.1169 24.3601 22.4987L29.9166 28.0552C30.3615 28.5001 30.3615 29.2214 29.9166 29.6663C29.4717 30.1112 28.7503 30.1112 28.3054 29.6663L22.7489 24.1098ZM25.3135 13.6709C25.3135 19.9627 20.213 25.0633 13.9211 25.0633C7.62928 25.0633 2.52873 19.9627 2.52873 13.6709C2.52873 7.37903 7.62928 2.27848 13.9211 2.27848C20.213 2.27848 25.3135 7.37903 25.3135 13.6709Z" fill="#687684"/>
</svg>
