<svg width="23" height="22" viewBox="0 0 23 22" fill="none" xmlns="http://www.w3.org/2000/svg">
<path id="Vector" d="M0 12.0325H7.0908V9.96752H0V0.516154C1.75798e-05 0.426446 0.0267918 0.338291 0.0776837 0.260376C0.128576 0.182462 0.201829 0.117479 0.290222 0.0718315C0.378616 0.026184 0.479099 0.00144798 0.581768 6.16616e-05C0.684437 -0.00132466 0.785747 0.0206865 0.875713 0.0639257L22.6941 10.5478C22.7867 10.5923 22.864 10.6578 22.9178 10.7374C22.9716 10.8169 23 10.9076 23 11C23 11.0924 22.9716 11.1831 22.9178 11.2626C22.864 11.3422 22.7867 11.4077 22.6941 11.4522L0.875713 21.9361C0.785747 21.9793 0.684437 22.0013 0.581768 21.9999C0.479099 21.9986 0.378616 21.9738 0.290222 21.9282C0.201829 21.8825 0.128576 21.8175 0.0776837 21.7396C0.0267918 21.6617 1.75798e-05 21.5736 0 21.4838V12.0325Z" fill="#54433A"/>
</svg>
