<svg width="20" height="25" viewBox="0 0 20 25" fill="none" xmlns="http://www.w3.org/2000/svg">
<path id="Vector" d="M10.0006 2.27273C9.11102 2.27273 8.25791 2.6319 7.62891 3.27123C6.99991 3.91056 6.64654 4.77767 6.64654 5.68182V10.2273C6.64654 11.1314 6.99991 11.9985 7.62891 12.6379C8.25791 13.2772 9.11102 13.6364 10.0006 13.6364C10.8901 13.6364 11.7432 13.2772 12.3722 12.6379C13.0012 11.9985 13.3546 11.1314 13.3546 10.2273V5.68182C13.3546 4.77767 13.0012 3.91056 12.3722 3.27123C11.7432 2.6319 10.8901 2.27273 10.0006 2.27273ZM10.0006 0C10.7347 0 11.4616 0.146965 12.1398 0.432503C12.818 0.718041 13.4342 1.13656 13.9533 1.66417C14.4724 2.19177 14.8841 2.81813 15.1651 3.50748C15.446 4.19683 15.5906 4.93567 15.5906 5.68182V10.2273C15.5906 11.7342 15.0016 13.1794 13.9533 14.2449C12.905 15.3105 11.4831 15.9091 10.0006 15.9091C8.51799 15.9091 7.09615 15.3105 6.04781 14.2449C4.99948 13.1794 4.41053 11.7342 4.41053 10.2273V5.68182C4.41053 4.17491 4.99948 2.72971 6.04781 1.66417C7.09615 0.598618 8.51799 0 10.0006 0ZM0 11.3636H2.25278C2.52367 13.2554 3.45561 14.9849 4.87812 16.2355C6.30063 17.4862 8.1186 18.1745 9.99944 18.1745C11.8803 18.1745 13.6983 17.4862 15.1208 16.2355C16.5433 14.9849 17.4752 13.2554 17.7461 11.3636H20C19.7458 13.669 18.7284 15.8181 17.1147 17.4586C15.5009 19.099 13.3866 20.1334 11.1186 20.392V25H8.88255V20.392C6.61427 20.1336 4.49973 19.0994 2.88577 17.4589C1.27181 15.8184 0.254249 13.6692 0 11.3636Z" fill="black"/>
</svg>
